<svg xmlns="http://www.w3.org/2000/svg" xmlns:xlink="http://www.w3.org/1999/xlink" width="358" zoomAndPan="magnify" viewBox="0 0 268.5 297.749991" height="397" preserveAspectRatio="xMidYMid meet" version="1.0"><defs><clipPath id="c93dd876f1"><path d="M 153 75 L 179 75 L 179 125 L 153 125 Z M 153 75 " clip-rule="nonzero"/></clipPath><clipPath id="87e3e9c889"><path d="M 153.121094 75.730469 L 193.4375 106.363281 L 178.789062 125.644531 L 138.46875 95.011719 Z M 153.121094 75.730469 " clip-rule="nonzero"/></clipPath><clipPath id="96f61caca6"><path d="M 178.855469 95.285156 L 153.121094 75.730469 L 153.125 104.835938 L 178.863281 124.390625 L 178.855469 95.285156 " clip-rule="nonzero"/></clipPath><clipPath id="cf0092bb71"><path d="M 153 75 L 180 75 L 180 125 L 153 125 Z M 153 75 " clip-rule="nonzero"/></clipPath><clipPath id="71b1786b53"><path d="M 153.121094 75.730469 L 193.132812 106.128906 L 179.066406 124.644531 L 139.054688 94.242188 Z M 153.121094 75.730469 " clip-rule="nonzero"/></clipPath><clipPath id="74a5603174"><path d="M 153.125 75.734375 L 193.691406 106.554688 L 178.992188 125.898438 L 138.425781 95.082031 Z M 153.125 75.734375 " clip-rule="nonzero"/></clipPath><clipPath id="2135a95369"><path d="M 179.019531 95.40625 L 153.125 75.734375 L 153.167969 104.964844 L 179.0625 124.640625 L 179.019531 95.40625 " clip-rule="nonzero"/></clipPath><clipPath id="b6b1fec958"><path d="M 127 162 L 179 162 L 179 200 L 127 200 Z M 127 162 " clip-rule="nonzero"/></clipPath><clipPath id="b347c22404"><path d="M 127.296875 179.855469 L 161.601562 156.511719 L 179.109375 182.242188 L 144.800781 205.585938 Z M 127.296875 179.855469 " clip-rule="nonzero"/></clipPath><clipPath id="87ae00d1d1"><path d="M 153.027344 162.347656 L 127.296875 179.855469 L 153.246094 199.550781 L 178.972656 182.046875 L 153.027344 162.347656 " clip-rule="nonzero"/></clipPath><clipPath id="1fd93f4ed7"><path d="M 127 162 L 179 162 L 179 200 L 127 200 Z M 127 162 " clip-rule="nonzero"/></clipPath><clipPath id="3950040e9f"><path d="M 127.296875 179.855469 L 161.402344 156.648438 L 178.699219 182.074219 L 144.59375 205.277344 Z M 127.296875 179.855469 " clip-rule="nonzero"/></clipPath><clipPath id="77748e0f4c"><path d="M 127.296875 179.855469 L 161.402344 156.652344 L 178.832031 182.269531 L 144.726562 205.472656 Z M 127.296875 179.855469 " clip-rule="nonzero"/></clipPath><clipPath id="0ebc2ba67f"><path d="M 152.875 162.453125 L 127.296875 179.855469 L 153.121094 199.476562 L 178.699219 182.070312 L 152.875 162.453125 " clip-rule="nonzero"/></clipPath><clipPath id="8375cf7f9a"><path d="M 153 104 L 179 104 L 179 153 L 153 153 Z M 153 104 " clip-rule="nonzero"/></clipPath><clipPath id="7d9ac90829"><path d="M 153.121094 104.378906 L 193.4375 135.011719 L 178.789062 154.292969 L 138.46875 123.664062 Z M 153.121094 104.378906 " clip-rule="nonzero"/></clipPath><clipPath id="cafc859c98"><path d="M 178.855469 123.933594 L 153.121094 104.378906 L 153.125 133.488281 L 178.863281 153.039062 L 178.855469 123.933594 " clip-rule="nonzero"/></clipPath><clipPath id="2b36c1808c"><path d="M 153 104 L 180 104 L 180 154 L 153 154 Z M 153 104 " clip-rule="nonzero"/></clipPath><clipPath id="22bbb90e26"><path d="M 153.121094 104.378906 L 193.132812 134.78125 L 179.066406 153.292969 L 139.054688 122.894531 Z M 153.121094 104.378906 " clip-rule="nonzero"/></clipPath><clipPath id="57064ffe40"><path d="M 153.125 104.382812 L 193.691406 135.203125 L 178.992188 154.550781 L 138.425781 123.730469 Z M 153.125 104.382812 " clip-rule="nonzero"/></clipPath><clipPath id="bae7005dfe"><path d="M 179.019531 124.058594 L 153.125 104.382812 L 153.167969 133.617188 L 179.0625 153.289062 L 179.019531 124.058594 " clip-rule="nonzero"/></clipPath><clipPath id="5c32957379"><path d="M 153 133 L 179 133 L 179 182 L 153 182 Z M 153 133 " clip-rule="nonzero"/></clipPath><clipPath id="5b24ace8e3"><path d="M 153.121094 133.5 L 193.4375 164.132812 L 178.789062 183.414062 L 138.46875 152.785156 Z M 153.121094 133.5 " clip-rule="nonzero"/></clipPath><clipPath id="9ebd6bb5e0"><path d="M 178.855469 153.054688 L 153.121094 133.5 L 153.125 162.605469 L 178.863281 182.160156 L 178.855469 153.054688 " clip-rule="nonzero"/></clipPath><clipPath id="9599d82586"><path d="M 153 133 L 180 133 L 180 183 L 153 183 Z M 153 133 " clip-rule="nonzero"/></clipPath><clipPath id="0d4c36be87"><path d="M 153.121094 133.5 L 193.132812 163.898438 L 179.066406 182.414062 L 139.054688 152.015625 Z M 153.121094 133.5 " clip-rule="nonzero"/></clipPath><clipPath id="54ca42f89c"><path d="M 153.125 133.503906 L 193.691406 164.324219 L 178.992188 183.667969 L 138.425781 152.851562 Z M 153.125 133.503906 " clip-rule="nonzero"/></clipPath><clipPath id="e7edd16224"><path d="M 179.019531 153.175781 L 153.125 133.503906 L 153.167969 162.738281 L 179.0625 182.410156 L 179.019531 153.175781 " clip-rule="nonzero"/></clipPath><clipPath id="ccae6cdb16"><path d="M 101 179 L 154 179 L 154 217 L 101 217 Z M 101 179 " clip-rule="nonzero"/></clipPath><clipPath id="2491db8172"><path d="M 101.332031 196.851562 L 135.640625 173.507812 L 153.144531 199.238281 L 118.839844 222.578125 Z M 101.332031 196.851562 " clip-rule="nonzero"/></clipPath><clipPath id="1054115aab"><path d="M 127.0625 179.34375 L 101.332031 196.851562 L 127.28125 216.546875 L 153.011719 199.042969 L 127.0625 179.34375 " clip-rule="nonzero"/></clipPath><clipPath id="e8391a96a4"><path d="M 101 179 L 153 179 L 153 217 L 101 217 Z M 101 179 " clip-rule="nonzero"/></clipPath><clipPath id="55f497c296"><path d="M 101.332031 196.851562 L 135.4375 173.644531 L 152.734375 199.070312 L 118.632812 222.273438 Z M 101.332031 196.851562 " clip-rule="nonzero"/></clipPath><clipPath id="ae769b9fd9"><path d="M 101.335938 196.851562 L 135.4375 173.648438 L 152.867188 199.261719 L 118.761719 222.46875 Z M 101.335938 196.851562 " clip-rule="nonzero"/></clipPath><clipPath id="f19e5e8e12"><path d="M 126.914062 179.449219 L 101.335938 196.851562 L 127.15625 216.472656 L 152.734375 199.066406 L 126.914062 179.449219 " clip-rule="nonzero"/></clipPath><clipPath id="2edfef2e93"><path d="M 75 160 L 128 160 L 128 198 L 75 198 Z M 75 160 " clip-rule="nonzero"/></clipPath><clipPath id="c4bf4cc8f3"><path d="M 75.617188 177.664062 L 109.921875 154.320312 L 127.429688 180.050781 L 93.125 203.390625 Z M 75.617188 177.664062 " clip-rule="nonzero"/></clipPath><clipPath id="4da06b5e4d"><path d="M 101.347656 160.15625 L 75.617188 177.664062 L 101.566406 197.359375 L 127.296875 179.851562 L 101.347656 160.15625 " clip-rule="nonzero"/></clipPath><clipPath id="b8957aa35d"><path d="M 75 160 L 128 160 L 128 198 L 75 198 Z M 75 160 " clip-rule="nonzero"/></clipPath><clipPath id="239f2efda1"><path d="M 75.617188 177.664062 L 109.722656 154.457031 L 127.019531 179.882812 L 92.914062 203.085938 Z M 75.617188 177.664062 " clip-rule="nonzero"/></clipPath><clipPath id="afb364952e"><path d="M 75.617188 177.664062 L 109.722656 154.460938 L 127.152344 180.074219 L 93.046875 203.28125 Z M 75.617188 177.664062 " clip-rule="nonzero"/></clipPath><clipPath id="d927070aec"><path d="M 101.195312 160.261719 L 75.617188 177.664062 L 101.441406 197.28125 L 127.019531 179.878906 L 101.195312 160.261719 " clip-rule="nonzero"/></clipPath><clipPath id="8b14899c78"><path d="M 109 139 L 128 139 L 128 175 L 109 175 Z M 109 139 " clip-rule="nonzero"/></clipPath><clipPath id="6466cd2d07"><path d="M 109.347656 139.5 L 138.53125 161.671875 L 127.925781 175.628906 L 98.746094 153.457031 Z M 109.347656 139.5 " clip-rule="nonzero"/></clipPath><clipPath id="e3f1b2adec"><path d="M 127.976562 153.652344 L 109.347656 139.5 L 109.351562 160.566406 L 127.980469 174.71875 L 127.976562 153.652344 " clip-rule="nonzero"/></clipPath><clipPath id="68721d861c"><path d="M 109 139 L 129 139 L 129 175 L 109 175 Z M 109 139 " clip-rule="nonzero"/></clipPath><clipPath id="33ee97eec6"><path d="M 109.347656 139.5 L 138.015625 161.277344 L 128.03125 174.417969 L 99.367188 152.640625 Z M 109.347656 139.5 " clip-rule="nonzero"/></clipPath><clipPath id="162c4f3d93"><path d="M 109.351562 139.503906 L 138.414062 161.582031 L 127.984375 175.3125 L 98.917969 153.234375 Z M 109.351562 139.503906 " clip-rule="nonzero"/></clipPath><clipPath id="a5b067c81c"><path d="M 127.902344 153.597656 L 109.351562 139.503906 L 109.476562 160.320312 L 128.03125 174.414062 L 127.902344 153.597656 " clip-rule="nonzero"/></clipPath><clipPath id="583129cdb2"><path d="M 109 126 L 147 126 L 147 154 L 109 154 Z M 109 126 " clip-rule="nonzero"/></clipPath><clipPath id="e8f44f1535"><path d="M 109.296875 139.476562 L 134.125 122.582031 L 146.796875 141.203125 L 121.964844 158.097656 Z M 109.296875 139.476562 " clip-rule="nonzero"/></clipPath><clipPath id="42691a3533"><path d="M 127.917969 126.804688 L 109.296875 139.476562 L 128.078125 153.734375 L 146.699219 141.0625 L 127.917969 126.804688 " clip-rule="nonzero"/></clipPath><clipPath id="e3c630c688"><path d="M 109 126 L 147 126 L 147 154 L 109 154 Z M 109 126 " clip-rule="nonzero"/></clipPath><clipPath id="26a6d565ca"><path d="M 109.296875 139.476562 L 134.097656 122.601562 L 146.757812 141.203125 L 121.953125 158.078125 Z M 109.296875 139.476562 " clip-rule="nonzero"/></clipPath><clipPath id="9ba3559b3b"><path d="M 109.296875 139.476562 L 134.101562 122.601562 L 146.851562 141.34375 L 122.050781 158.222656 Z M 109.296875 139.476562 " clip-rule="nonzero"/></clipPath><clipPath id="fcb499cfcb"><path d="M 127.898438 126.820312 L 109.296875 139.476562 L 128.152344 153.859375 L 146.753906 141.203125 L 127.898438 126.820312 " clip-rule="nonzero"/></clipPath><clipPath id="591adc6946"><path d="M 127.695312 141.09375 L 146.78125 141.09375 L 146.78125 175 L 127.695312 175 Z M 127.695312 141.09375 " clip-rule="nonzero"/></clipPath><clipPath id="2c50493a5c"><path d="M 146.78125 161.996094 L 146.78125 141.09375 L 127.992188 153.816406 L 127.992188 174.71875 L 146.78125 161.996094 " clip-rule="nonzero"/></clipPath><clipPath id="56898fb588"><path d="M 128.03125 141.097656 L 146.78125 141.097656 L 146.78125 174.84375 L 128.03125 174.84375 Z M 128.03125 141.097656 " clip-rule="nonzero"/></clipPath><clipPath id="a714e2278a"><path d="M 146.78125 162.070312 L 146.78125 141.097656 L 128.03125 153.867188 L 128.03125 174.839844 L 146.78125 162.070312 " clip-rule="nonzero"/></clipPath></defs><g clip-path="url(#c93dd876f1)"><g clip-path="url(#87e3e9c889)"><g clip-path="url(#96f61caca6)"><path fill="#2e3b73" d="M 153.121094 75.730469 L 192.5625 105.695312 L 178.578125 124.101562 L 139.136719 94.136719 Z M 153.121094 75.730469 " fill-opacity="1" fill-rule="nonzero"/></g></g></g><g clip-path="url(#cf0092bb71)"><g clip-path="url(#71b1786b53)"><g clip-path="url(#74a5603174)"><g clip-path="url(#2135a95369)"><path stroke-linecap="butt" transform="matrix(0.600981, 0.456588, -0.45532, 0.599312, 153.124796, 75.734087)" fill="none" stroke-linejoin="miter" d="M 43.086588 -0.00109805 L 0.000445712 0.000140728 L 23.474646 30.889627 L 66.563919 30.892521 L 43.086588 -0.00109805 " stroke="#5acc63" stroke-width="6" stroke-opacity="1" stroke-miterlimit="4"/></g></g></g></g><g clip-path="url(#b6b1fec958)"><g clip-path="url(#b347c22404)"><g clip-path="url(#87ae00d1d1)"><path fill="#2e3b73" d="M 127.296875 179.855469 L 161.601562 156.511719 L 179.109375 182.242188 L 144.800781 205.585938 Z M 127.296875 179.855469 " fill-opacity="1" fill-rule="nonzero"/></g></g></g><g clip-path="url(#1fd93f4ed7)"><g clip-path="url(#3950040e9f)"><g clip-path="url(#77748e0f4c)"><g clip-path="url(#0ebc2ba67f)"><path stroke-linecap="butt" transform="matrix(0.616576, -0.419519, 0.420142, 0.61749, 127.297102, 179.856113)" fill="none" stroke-linejoin="miter" d="M 41.483595 0.000304952 L 0.000234531 -0.000883419 L 13.829213 41.169998 L 55.31552 41.166862 L 41.483595 0.000304952 " stroke="#5acc63" stroke-width="6" stroke-opacity="1" stroke-miterlimit="4"/></g></g></g></g><g clip-path="url(#8375cf7f9a)"><g clip-path="url(#7d9ac90829)"><g clip-path="url(#cafc859c98)"><path fill="#2e3b73" d="M 153.121094 104.378906 L 192.5625 134.347656 L 178.578125 152.753906 L 139.136719 122.785156 Z M 153.121094 104.378906 " fill-opacity="1" fill-rule="nonzero"/></g></g></g><g clip-path="url(#2b36c1808c)"><g clip-path="url(#22bbb90e26)"><g clip-path="url(#57064ffe40)"><g clip-path="url(#bae7005dfe)"><path stroke-linecap="butt" transform="matrix(0.600981, 0.456588, -0.45532, 0.599312, 153.124796, 104.384084)" fill="none" stroke-linejoin="miter" d="M 43.088469 0.00138524 L -0.000803826 -0.00150855 L 23.476527 30.892111 L 66.56267 30.890872 L 43.088469 0.00138524 " stroke="#5acc63" stroke-width="6" stroke-opacity="1" stroke-miterlimit="4"/></g></g></g></g><g clip-path="url(#5c32957379)"><g clip-path="url(#5b24ace8e3)"><g clip-path="url(#9ebd6bb5e0)"><path fill="#2e3b73" d="M 153.121094 133.5 L 192.5625 163.464844 L 178.578125 181.871094 L 139.136719 151.90625 Z M 153.121094 133.5 " fill-opacity="1" fill-rule="nonzero"/></g></g></g><g clip-path="url(#9599d82586)"><g clip-path="url(#0d4c36be87)"><g clip-path="url(#54ca42f89c)"><g clip-path="url(#e7edd16224)"><path stroke-linecap="butt" transform="matrix(0.600981, 0.456588, -0.45532, 0.599312, 153.124796, 133.504176)" fill="none" stroke-linejoin="miter" d="M 43.086141 -0.00168777 L -0.00000108075 -0.000448999 L 23.47733 30.89317 L 66.563472 30.891931 L 43.086141 -0.00168777 " stroke="#5acc63" stroke-width="6" stroke-opacity="1" stroke-miterlimit="4"/></g></g></g></g><g clip-path="url(#ccae6cdb16)"><g clip-path="url(#2491db8172)"><g clip-path="url(#1054115aab)"><path fill="#2e3b73" d="M 101.332031 196.851562 L 135.640625 173.507812 L 153.144531 199.238281 L 118.839844 222.578125 Z M 101.332031 196.851562 " fill-opacity="1" fill-rule="nonzero"/></g></g></g><g clip-path="url(#e8391a96a4)"><g clip-path="url(#55f497c296)"><g clip-path="url(#ae769b9fd9)"><g clip-path="url(#f19e5e8e12)"><path stroke-linecap="butt" transform="matrix(0.616576, -0.419519, 0.420142, 0.61749, 101.33433, 196.852128)" fill="none" stroke-linejoin="miter" d="M 41.48557 0.00177296 L 0.00220937 0.000584588 L 13.826857 41.168524 L 55.313164 41.165388 L 41.48557 0.00177296 " stroke="#5acc63" stroke-width="6" stroke-opacity="1" stroke-miterlimit="4"/></g></g></g></g><g clip-path="url(#2edfef2e93)"><g clip-path="url(#c4bf4cc8f3)"><g clip-path="url(#4da06b5e4d)"><path fill="#2e3b73" d="M 75.617188 177.664062 L 109.921875 154.320312 L 127.429688 180.050781 L 93.125 203.390625 Z M 75.617188 177.664062 " fill-opacity="1" fill-rule="nonzero"/></g></g></g><g clip-path="url(#b8957aa35d)"><g clip-path="url(#239f2efda1)"><g clip-path="url(#afb364952e)"><g clip-path="url(#d927070aec)"><path stroke-linecap="butt" transform="matrix(0.616576, -0.419519, 0.420142, 0.61749, 75.618729, 177.663926)" fill="none" stroke-linejoin="miter" d="M 41.481548 0.00017785 L -0.00181224 -0.00101052 L 13.830113 41.165547 L 55.313473 41.166735 L 41.481548 0.00017785 " stroke="#5acc63" stroke-width="6" stroke-opacity="1" stroke-miterlimit="4"/></g></g></g></g><g clip-path="url(#8b14899c78)"><g clip-path="url(#6466cd2d07)"><g clip-path="url(#e3f1b2adec)"><path fill="#2e3b73" d="M 109.347656 139.5 L 137.894531 161.1875 L 127.773438 174.511719 L 99.226562 152.824219 Z M 109.347656 139.5 " fill-opacity="1" fill-rule="nonzero"/></g></g></g><g clip-path="url(#68721d861c)"><g clip-path="url(#33ee97eec6)"><g clip-path="url(#162c4f3d93)"><g clip-path="url(#a5b067c81c)"><path stroke-linecap="butt" transform="matrix(0.594873, 0.451948, -0.446421, 0.587599, 109.350534, 139.502644)" fill="none" stroke-linejoin="miter" d="M 31.186557 0.000546112 L 0.00211907 0.000518873 L 16.99147 22.359507 L 48.180072 22.356332 L 31.186557 0.000546112 " stroke="#ed8f13" stroke-width="6" stroke-opacity="1" stroke-miterlimit="4"/></g></g></g></g><g clip-path="url(#583129cdb2)"><g clip-path="url(#e8f44f1535)"><g clip-path="url(#42691a3533)"><path fill="#2e3b73" d="M 109.296875 139.476562 L 134.125 122.582031 L 146.796875 141.203125 L 121.964844 158.097656 Z M 109.296875 139.476562 " fill-opacity="1" fill-rule="nonzero"/></g></g></g><g clip-path="url(#e3c630c688)"><g clip-path="url(#26a6d565ca)"><g clip-path="url(#9ba3559b3b)"><g clip-path="url(#fcb499cfcb)"><path stroke-linecap="butt" transform="matrix(0.619595, -0.421574, 0.424779, 0.624306, 109.296756, 139.477318)" fill="none" stroke-linejoin="miter" d="M 30.022618 -0.000413307 L 0.000698286 -0.000738637 L 10.006241 29.793769 L 40.02816 29.794095 L 30.022618 -0.000413307 " stroke="#ed8f13" stroke-width="6" stroke-opacity="1" stroke-miterlimit="4"/></g></g></g></g><g clip-path="url(#591adc6946)"><g clip-path="url(#2c50493a5c)"><path fill="#2e3b73" d="M 146.78125 141.09375 L 146.78125 174.496094 L 127.695312 174.496094 L 127.695312 141.09375 Z M 146.78125 141.09375 " fill-opacity="1" fill-rule="nonzero"/></g></g><g clip-path="url(#56898fb588)"><g clip-path="url(#a714e2278a)"><path stroke-linecap="butt" transform="matrix(0.000000000000000046, 0.752876, -0.748596, 0.000000000000000046, 146.783153, 141.096077)" fill="none" stroke-linejoin="miter" d="M 27.858835 0.00254218 L 0.00209749 0.00254218 L 16.96311 25.049417 L 44.819848 25.049417 L 27.858835 0.00254218 " stroke="#ed8f13" stroke-width="6" stroke-opacity="1" stroke-miterlimit="4"/></g></g></svg>